<svg width="655" height="180" viewBox="0 0 655 180" fill="none" xmlns="http://www.w3.org/2000/svg">
<g filter="url(#filter0_d)">
<path id="wrote" d="M41.0643 64.12H56.3283L63.9603 95.512L70.7283 123.88H71.1603L78.9363 95.512L88.0083 64.12H102.12L111.336 95.512L119.256 123.88H119.688L126.312 95.512L134.088 64.12H148.632L128.472 139H110.76L100.968 104.872L94.9203 83.848H94.6323L88.7283 104.872L78.7923 139H61.5123L41.0643 64.12ZM163.584 139V64.12H179.28V78.52H180C181.056 74.68 183.264 71.32 186.624 68.44C189.984 65.56 194.64 64.12 200.592 64.12H204.768V79.24H198.576C192.336 79.24 187.536 80.248 184.176 82.264C180.912 84.28 179.28 87.256 179.28 91.192V139H163.584ZM247.381 140.728C242.197 140.728 237.445 139.816 233.125 137.992C228.901 136.168 225.301 133.576 222.325 130.216C219.349 126.76 217.045 122.632 215.413 117.832C213.781 112.936 212.965 107.512 212.965 101.56C212.965 95.608 213.781 90.232 215.413 85.432C217.045 80.536 219.349 76.408 222.325 73.048C225.301 69.592 228.901 66.952 233.125 65.128C237.445 63.304 242.197 62.392 247.381 62.392C252.565 62.392 257.269 63.304 261.493 65.128C265.813 66.952 269.461 69.592 272.437 73.048C275.413 76.408 277.717 80.536 279.349 85.432C280.981 90.232 281.797 95.608 281.797 101.56C281.797 107.512 280.981 112.936 279.349 117.832C277.717 122.632 275.413 126.76 272.437 130.216C269.461 133.576 265.813 136.168 261.493 137.992C257.269 139.816 252.565 140.728 247.381 140.728ZM247.381 127.768C252.757 127.768 257.077 126.136 260.341 122.872C263.605 119.512 265.237 114.52 265.237 107.896V95.224C265.237 88.6 263.605 83.656 260.341 80.392C257.077 77.032 252.757 75.352 247.381 75.352C242.005 75.352 237.685 77.032 234.421 80.392C231.157 83.656 229.525 88.6 229.525 95.224V107.896C229.525 114.52 231.157 119.512 234.421 122.872C237.685 126.136 242.005 127.768 247.381 127.768ZM319.601 139C314.129 139 310.001 137.608 307.217 134.824C304.433 131.944 303.041 127.912 303.041 122.728V76.936H291.377V64.12H297.713C300.305 64.12 302.081 63.544 303.041 62.392C304.097 61.24 304.625 59.368 304.625 56.776V43.672H318.737V64.12H334.433V76.936H318.737V126.184H333.281V139H319.601ZM380.272 140.728C374.896 140.728 370.096 139.816 365.872 137.992C361.648 136.168 358.048 133.576 355.072 130.216C352.096 126.76 349.792 122.632 348.16 117.832C346.624 112.936 345.856 107.512 345.856 101.56C345.856 95.608 346.624 90.232 348.16 85.432C349.792 80.536 352.096 76.408 355.072 73.048C358.048 69.592 361.648 66.952 365.872 65.128C370.096 63.304 374.896 62.392 380.272 62.392C385.744 62.392 390.544 63.352 394.672 65.272C398.896 67.192 402.4 69.88 405.184 73.336C407.968 76.696 410.032 80.632 411.376 85.144C412.816 89.656 413.536 94.504 413.536 99.688V105.592H362.128V108.04C362.128 113.8 363.808 118.552 367.168 122.296C370.624 125.944 375.52 127.768 381.856 127.768C386.464 127.768 390.352 126.76 393.52 124.744C396.688 122.728 399.376 119.992 401.584 116.536L410.8 125.608C408.016 130.216 403.984 133.912 398.704 136.696C393.424 139.384 387.28 140.728 380.272 140.728ZM380.272 74.632C377.584 74.632 375.088 75.112 372.784 76.072C370.576 77.032 368.656 78.376 367.024 80.104C365.488 81.832 364.288 83.896 363.424 86.296C362.56 88.696 362.128 91.336 362.128 94.216V95.224H396.976V93.784C396.976 88.024 395.488 83.416 392.512 79.96C389.536 76.408 385.456 74.632 380.272 74.632Z" fill="black"/>
<path id="t" d="M491.171 139C485.699 139 481.571 137.608 478.787 134.824C476.003 131.944 474.611 127.912 474.611 122.728V76.936H462.947V64.12H469.283C471.875 64.12 473.651 63.544 474.611 62.392C475.667 61.24 476.195 59.368 476.195 56.776V43.672H490.307V64.12H506.003V76.936H490.307V126.184H504.851V139H491.171Z" fill="black"/>
<rect id="rect-i" x="431.68" y="64.12" width="15.7" height="74.9" fill="black"/>
<circle id="dot-i" cx="439.5" cy="41.5" r="9.5" fill="#FBD38D"/>
</g>
<defs>
<filter id="filter0_d" x="-4" y="0" width="663" height="188" filterUnits="userSpaceOnUse" color-interpolation-filters="sRGB">
<feFlood flood-opacity="0" result="BackgroundImageFix"/>
<feColorMatrix in="SourceAlpha" type="matrix" values="0 0 0 0 0 0 0 0 0 0 0 0 0 0 0 0 0 0 127 0"/>
<feOffset dy="4"/>
<feGaussianBlur stdDeviation="2"/>
<feColorMatrix type="matrix" values="0 0 0 0 0 0 0 0 0 0 0 0 0 0 0 0 0 0 0.25 0"/>
<feBlend mode="normal" in2="BackgroundImageFix" result="effect1_dropShadow"/>
<feBlend mode="normal" in="SourceGraphic" in2="effect1_dropShadow" result="shape"/>
</filter>
</defs>
</svg>
